<svg width="1065" height="681" xmlns="http://www.w3.org/2000/svg" xmlns:xlink="http://www.w3.org/1999/xlink" overflow="hidden"><g transform="translate(-70 -27)"><rect x="170" y="235" width="75" height="37" fill="#4E67C8"/><text fill="#FFFFFF" font-family="DengXian,DengXian_MSFontService,sans-serif" font-weight="400" font-size="24" transform="translate(194.462 261)">P8</text><rect x="262" y="235" width="75" height="37" fill="#4E67C8"/><text fill="#FFFFFF" font-family="DengXian,DengXian_MSFontService,sans-serif" font-weight="400" font-size="24" transform="translate(286.652 261)">P7</text><rect x="354" y="235" width="75" height="37" fill="#4E67C8"/><text fill="#FFFFFF" font-family="DengXian,DengXian_MSFontService,sans-serif" font-weight="400" font-size="24" transform="translate(378.843 261)">P6</text><rect x="446" y="235" width="76" height="37" fill="#4E67C8"/><text fill="#FFFFFF" font-family="DengXian,DengXian_MSFontService,sans-serif" font-weight="400" font-size="24" transform="translate(471.033 261)">P5</text><rect x="539" y="235" width="75" height="37" fill="#4E67C8"/><text fill="#FFFFFF" font-family="DengXian,DengXian_MSFontService,sans-serif" font-weight="400" font-size="24" transform="translate(563.224 261)">P4</text><rect x="631" y="235" width="75" height="37" fill="#4E67C8"/><text fill="#FFFFFF" font-family="DengXian,DengXian_MSFontService,sans-serif" font-weight="400" font-size="24" transform="translate(655.414 261)">P3</text><rect x="722" y="235" width="75" height="37" fill="#4E67C8"/><text fill="#FFFFFF" font-family="DengXian,DengXian_MSFontService,sans-serif" font-weight="400" font-size="24" transform="translate(746.462 261)">P2</text><rect x="814" y="235" width="75" height="37" fill="#4E67C8"/><text fill="#FFFFFF" font-family="DengXian,DengXian_MSFontService,sans-serif" font-weight="400" font-size="24" transform="translate(838.652 261)">P1</text><rect x="906" y="235" width="75" height="37" fill="#4E67C8"/><text fill="#FFFFFF" font-family="DengXian,DengXian_MSFontService,sans-serif" font-weight="400" font-size="24" transform="translate(930.842 261)">P0</text><rect x="197" y="297" width="181" height="52" fill="#4E67C8"/><text fill="#FFFFFF" font-family="DengXian,DengXian_MSFontService,sans-serif" font-weight="400" font-size="24" transform="translate(259.91 331)">CSA2</text><rect x="474" y="294" width="180" height="52" fill="#4E67C8"/><text fill="#FFFFFF" font-family="DengXian,DengXian_MSFontService,sans-serif" font-weight="400" font-size="24" transform="translate(536.482 327)">CSA1</text><rect x="749" y="297" width="181" height="52" fill="#4E67C8"/><text fill="#FFFFFF" font-family="DengXian,DengXian_MSFontService,sans-serif" font-weight="400" font-size="24" transform="translate(811.91 331)">CSA0</text><path d="M207.699 271.864 281.453 294.966 281.054 296.238 207.301 273.136ZM281.177 291.387 287.615 297.595 278.785 299.021Z" fill="#556CD1"/><path d="M0.600739-0.289063 9.78527 18.7985 8.5838 19.3766-0.600739 0.289063ZM12.2108 16.1517 12.0752 25.0949 5.00198 19.6204Z" fill="#556CD1" transform="matrix(-1 0 0 1 299.575 272.5)"/><path d="M0.156-0.648158 97.94 22.8867 97.628 24.183-0.156 0.648158ZM97.4237 19.334 104.266 25.0949 95.5517 27.1118Z" fill="#556CD1" transform="matrix(-1 0 0 1 391.766 272.5)"/><path d="M484.673 271.856 558.351 291.686 558.005 292.974 484.327 273.144ZM557.93 288.121 564.615 294.063 555.851 295.846Z" fill="#556CD1"/><path d="M0.581669-0.325739 9.39945 15.4201 8.23611 16.0716-0.581669 0.325739ZM11.6563 12.6281 12.0752 21.5625 4.67629 16.5369Z" fill="#556CD1" transform="matrix(-1 0 0 1 576.575 272.5)"/><path d="M0.135012-0.652852 97.872 19.5595 97.602 20.8652-0.135012 0.652852ZM97.2415 16.0253 104.266 21.5625 95.6213 23.8595Z" fill="#556CD1" transform="matrix(-1 0 0 1 668.766 272.5)"/><path d="M759.699 271.864 833.453 294.966 833.054 296.238 759.301 273.136ZM833.177 291.387 839.615 297.595 830.785 299.021Z" fill="#556CD1"/><path d="M0.600739-0.289063 9.78527 18.7985 8.5838 19.3766-0.600739 0.289063ZM12.2108 16.1517 12.0752 25.0949 5.00198 19.6204Z" fill="#556CD1" transform="matrix(-1 0 0 1 851.575 272.5)"/><path d="M0.156-0.648158 97.94 22.8867 97.628 24.183-0.156 0.648158ZM97.4237 19.334 104.266 25.0949 95.5517 27.1118Z" fill="#556CD1" transform="matrix(-1 0 0 1 943.766 272.5)"/><rect x="336" y="367" width="181" height="52" fill="#4E67C8"/><text fill="#FFFFFF" font-family="DengXian,DengXian_MSFontService,sans-serif" font-weight="400" font-size="24" transform="translate(398.958 400)">CSA1</text><rect x="617" y="367" width="180" height="52" fill="#4E67C8"/><text fill="#FFFFFF" font-family="DengXian,DengXian_MSFontService,sans-serif" font-weight="400" font-size="24" transform="translate(679.339 400)">CSA1</text><path d="M287.582 348.838 420.014 365.275 419.849 366.598 287.418 350.162ZM419.101 361.803 426.547 366.758 418.116 369.742Z" fill="#556CD1"/><path d="M378.942 323.001 422.935 361.999 422.05 362.996 378.058 323.999ZM424.148 358.62 427.481 366.92 418.841 364.606Z" fill="#556CD1"/><path d="M0.0996508-0.659177 131.032 19.1344 130.832 20.4528-0.0996508 0.659177ZM130.212 15.6393 137.524 20.7901 129.016 23.5494Z" fill="#556CD1" transform="matrix(-1 0 0 1 565.024 346.5)"/><path d="M564.596 345.84 700.856 365.67 700.664 366.99 564.404 347.16ZM700.017 362.18 707.357 367.29 698.865 370.096Z" fill="#556CD1"/><path d="M0.476395-0.46636 38.318 38.1895 37.3652 39.1223-0.476395 0.46636ZM39.7672 34.9049 42.5052 43.4198 34.0505 40.5013Z" fill="#556CD1" transform="matrix(-1 0 0 1 750.005 323.5)"/><path d="M0.0860586-0.661089 126.046 15.736 125.874 17.0582-0.0860586 0.661089ZM125.155 12.2585 132.571 17.2577 124.122 20.1916Z" fill="#556CD1" transform="matrix(-1 0 0 1 840.071 349.5)"/><rect x="510" y="436" width="180" height="53" fill="#4E67C8"/><text fill="#FFFFFF" font-family="DengXian,DengXian_MSFontService,sans-serif" font-weight="400" font-size="24" transform="translate(572.563 470)">CSA1</text><path d="M0.106446-0.658114 100.301 15.5477 100.088 16.8639-0.106446 0.658114ZM99.5167 12.0442 106.775 17.2702 98.2394 19.9416Z" fill="#556CD1" transform="matrix(-1 0 0 1 707.276 419.5)"/><path d="M0.622209-0.239376 14.9377 36.9709 13.6933 37.4496-0.622209 0.239376ZM17.57 34.5296 16.7093 43.4323 10.1035 37.4021Z" fill="#556CD1" transform="matrix(-1 0 0 1 617.209 393.5)"/><path d="M517.808 392.909 595.432 433.266 594.817 434.449 517.193 394.092ZM595.787 429.693 601.04 436.932 592.097 436.791Z" fill="#556CD1"/><rect x="422" y="507" width="180" height="52" fill="#4E67C8"/><path d="M419.113 507C419.113 505.405 420.405 504.113 422 504.113L602 504.113C603.595 504.113 604.887 505.405 604.887 507L604.887 559C604.887 560.595 603.595 561.887 602 561.887L422 561.887C420.405 561.887 419.113 560.595 419.113 559ZM422.577 558.423 601.423 558.423 601.423 507.577 422.577 507.577ZM423.732 508.732 600.268 508.732 600.268 557.268 423.732 557.268ZM424.887 556.113 599.113 556.113 599.113 509.887 424.887 509.887Z" fill="#5E6AAB"/><text fill="#FFFFFF" font-family="DengXian,DengXian_MSFontService,sans-serif" font-weight="400" font-size="24" transform="translate(484.672 541)">CSA1</text><path d="M427.977 419.035 509.039 502.209 508.084 503.14 427.023 419.965ZM510.496 498.928 513.215 507.449 504.766 504.512Z" fill="#556CD1"/><path d="M0.136282-0.652588 81.5015 16.3391 81.229 17.6443-0.136282 0.652588ZM80.8778 12.8036 87.8911 18.3545 79.2424 20.6347Z" fill="#556CD1" transform="matrix(-1 0 0 1 600.391 489.5)"/><path d="M511.166 462.468 513.016 500.325 511.684 500.391 509.834 462.533ZM516.28 498.831 512.675 507.017 508.289 499.221Z" fill="#556CD1"/><rect x="422" y="580" width="180" height="52" fill="#4E67C8"/><text fill="#FFFFFF" font-family="DengXian,DengXian_MSFontService,sans-serif" font-weight="400" font-size="24" transform="translate(459.589 614)">Full Adder</text><path d="M422.808 532.909 506.964 576.818 506.347 578 422.192 534.091ZM507.324 573.246 512.566 580.493 503.623 580.339Z" fill="#556CD1"/><path d="M0.308387-0.591052 84.4639 43.3179 83.8471 44.5-0.308387 0.591052ZM84.8237 39.7459 90.066 46.9929 81.1231 46.8385Z" fill="#556CD1" transform="matrix(-1 0 0 1 602.566 533.5)"/><path d="M421 662.833C421 658.507 424.507 655 428.833 655L593.167 655C597.493 655 601 658.507 601 662.833L601 694.167C601 698.493 597.493 702 593.167 702L428.833 702C424.507 702 421 698.493 421 694.167Z" fill="#A7EA52" fill-rule="evenodd"/><text fill="#FFFFFF" font-family="DengXian,DengXian_MSFontService,sans-serif" font-weight="400" font-size="24" transform="translate(470.835 686)">Product</text><path d="M422.818 605.914 505.936 650.982 505.3 652.154 422.182 607.086ZM506.353 647.416 511.479 654.746 502.539 654.449Z" fill="#556CD1"/><path d="M0.311866-0.589224 85.5732 44.5381 84.9495 45.7165-0.311866 0.589224ZM85.9541 40.9683 91.1536 48.246 82.2117 48.0389Z" fill="#556CD1" transform="matrix(-1 0 0 1 602.654 606.5)"/><path d="M0 0 833.581 0.000104987" stroke="#FF8021" stroke-width="2" stroke-linejoin="round" stroke-miterlimit="10" stroke-dasharray="8 6" fill="none" fill-rule="evenodd" transform="matrix(-1 0 0 1 995.581 429)"/><path d="M0 0 833.581 0.000104987" stroke="#FF8021" stroke-width="2" stroke-linejoin="round" stroke-miterlimit="10" stroke-dasharray="8 6" fill="none" fill-rule="evenodd" transform="matrix(-1 0 0 1 992.581 359)"/><path d="M0 0 833.581 0.000104987" stroke="#FF8021" stroke-width="2" stroke-linejoin="round" stroke-miterlimit="10" stroke-dasharray="8 6" fill="none" fill-rule="evenodd" transform="matrix(-1 0 0 1 994.581 284)"/><path d="M0 0 833.581 0.000104987" stroke="#FF8021" stroke-width="2" stroke-linejoin="round" stroke-miterlimit="10" stroke-dasharray="8 6" fill="none" fill-rule="evenodd" transform="matrix(-1 0 0 1 991.581 499)"/><path d="M0 0 833.581 0.000104987" stroke="#FF8021" stroke-width="2" stroke-linejoin="round" stroke-miterlimit="10" stroke-dasharray="8 6" fill="none" fill-rule="evenodd" transform="matrix(-1 0 0 1 995.581 570)"/><path d="M0 0 833.581 0.000104987" stroke="#FF8021" stroke-width="2" stroke-linejoin="round" stroke-miterlimit="10" stroke-dasharray="8 6" fill="none" fill-rule="evenodd" transform="matrix(-1 0 0 1 992.581 646)"/><text font-family="DengXian,DengXian_MSFontService,sans-serif" font-weight="400" font-size="24" transform="translate(1009.96 327)">Stage1</text><text font-family="DengXian,DengXian_MSFontService,sans-serif" font-weight="400" font-size="24" transform="translate(1009.96 403)">Stage2</text><text font-family="DengXian,DengXian_MSFontService,sans-serif" font-weight="400" font-size="24" transform="translate(1010.87 478)">Stage3</text><text font-family="DengXian,DengXian_MSFontService,sans-serif" font-weight="400" font-size="24" transform="translate(1009.96 543)">Stage4</text><text font-family="DengXian,DengXian_MSFontService,sans-serif" font-weight="400" font-size="24" transform="translate(1010.87 620)">Stage5</text><path d="M148.254 29.8812 246.537 29.8812 246.537 68.8145 148.254 68.8145Z" fill="#4E67C8" fill-rule="evenodd"/><path d="M246.537 29.8812 1032.8 29.8812 1032.8 68.8145 246.537 68.8145Z" fill="#4E67C8" fill-rule="evenodd"/><path d="M1032.8 29.8812 1131.09 29.8812 1131.09 68.8145 1032.8 68.8145Z" fill="#4E67C8" fill-rule="evenodd"/><path d="M148.254 68.8145 246.537 68.8145 246.537 107.214 148.254 107.214Z" fill="#D0D3EB" fill-rule="evenodd"/><path d="M246.537 68.8145 344.82 68.8145 344.82 107.214 246.537 107.214Z" fill="#D0D3EB" fill-rule="evenodd"/><path d="M344.82 68.8145 443.103 68.8145 443.103 107.214 344.82 107.214Z" fill="#D0D3EB" fill-rule="evenodd"/><path d="M443.103 68.8145 541.387 68.8145 541.387 107.214 443.103 107.214Z" fill="#D0D3EB" fill-rule="evenodd"/><path d="M541.387 68.8145 639.67 68.8145 639.67 107.214 541.387 107.214Z" fill="#D0D3EB" fill-rule="evenodd"/><path d="M639.67 68.8145 737.953 68.8145 737.953 107.214 639.67 107.214Z" fill="#D0D3EB" fill-rule="evenodd"/><path d="M737.953 68.8145 836.236 68.8145 836.236 107.214 737.953 107.214Z" fill="#D0D3EB" fill-rule="evenodd"/><path d="M836.236 68.8145 934.52 68.8145 934.52 107.214 836.236 107.214Z" fill="#D0D3EB" fill-rule="evenodd"/><path d="M934.52 68.8145 1032.8 68.8145 1032.8 107.214 934.52 107.214Z" fill="#D0D3EB" fill-rule="evenodd"/><path d="M1032.8 68.8145 1131.09 68.8145 1131.09 107.214 1032.8 107.214Z" fill="#D0D3EB" fill-rule="evenodd"/><path d="M246.537 29.2145 246.537 107.881" stroke="#FFFFFF" stroke-width="1.33333" stroke-linejoin="round" stroke-miterlimit="10" fill="none" fill-rule="evenodd"/><path d="M344.82 66.8145 344.82 107.881" stroke="#FFFFFF" stroke-width="1.33333" stroke-linejoin="round" stroke-miterlimit="10" fill="none" fill-rule="evenodd"/><path d="M443.103 66.8145 443.103 107.881" stroke="#FFFFFF" stroke-width="1.33333" stroke-linejoin="round" stroke-miterlimit="10" fill="none" fill-rule="evenodd"/><path d="M541.387 66.8145 541.387 107.881" stroke="#FFFFFF" stroke-width="1.33333" stroke-linejoin="round" stroke-miterlimit="10" fill="none" fill-rule="evenodd"/><path d="M639.67 66.8145 639.67 107.881" stroke="#FFFFFF" stroke-width="1.33333" stroke-linejoin="round" stroke-miterlimit="10" fill="none" fill-rule="evenodd"/><path d="M737.953 66.8145 737.953 107.881" stroke="#FFFFFF" stroke-width="1.33333" stroke-linejoin="round" stroke-miterlimit="10" fill="none" fill-rule="evenodd"/><path d="M836.236 66.8145 836.236 107.881" stroke="#FFFFFF" stroke-width="1.33333" stroke-linejoin="round" stroke-miterlimit="10" fill="none" fill-rule="evenodd"/><path d="M934.52 66.8145 934.52 107.881" stroke="#FFFFFF" stroke-width="1.33333" stroke-linejoin="round" stroke-miterlimit="10" fill="none" fill-rule="evenodd"/><path d="M1032.8 29.2145 1032.8 107.881" stroke="#FFFFFF" stroke-width="1.33333" stroke-linejoin="round" stroke-miterlimit="10" fill="none" fill-rule="evenodd"/><path d="M147.587 68.8145 1131.75 68.8145" stroke="#FFFFFF" stroke-width="4" stroke-linejoin="round" stroke-miterlimit="10" fill="none" fill-rule="evenodd"/><path d="M148.254 29.2145 148.254 107.881" stroke="#FFFFFF" stroke-width="1.33333" stroke-linejoin="round" stroke-miterlimit="10" fill="none" fill-rule="evenodd"/><path d="M1131.09 29.2145 1131.09 107.881" stroke="#FFFFFF" stroke-width="1.33333" stroke-linejoin="round" stroke-miterlimit="10" fill="none" fill-rule="evenodd"/><path d="M147.587 29.8812 1131.75 29.8812" stroke="#FFFFFF" stroke-width="1.33333" stroke-linejoin="round" stroke-miterlimit="10" fill="none" fill-rule="evenodd"/><path d="M147.587 107.214 1131.75 107.214" stroke="#FFFFFF" stroke-width="1.33333" stroke-linejoin="round" stroke-miterlimit="10" fill="none" fill-rule="evenodd"/><g><text fill="#FFFFFF" font-family="DengXian,DengXian_MSFontService,sans-serif" font-weight="700" font-size="24" transform="translate(1042.4 57)">extra</text></g><text fill="#FFFFFF" font-family="DengXian,DengXian_MSFontService,sans-serif" font-weight="700" font-size="24" transform="translate(615.586 57)">data</text><g><text fill="#FFFFFF" font-family="DengXian,DengXian_MSFontService,sans-serif" font-weight="700" font-size="24" transform="translate(157.854 57)">sign</text></g><g><text font-family="DengXian,DengXian_MSFontService,sans-serif" font-weight="400" font-size="24" transform="translate(1042.4 96)">B[</text></g><text font-family="DengXian,DengXian_MSFontService,sans-serif" font-weight="400" font-size="24" transform="translate(1062.74 96)">-</text><text font-family="DengXian,DengXian_MSFontService,sans-serif" font-weight="400" font-size="24" transform="translate(1074.74 96)">1]</text><g><text font-family="DengXian,DengXian_MSFontService,sans-serif" font-weight="400" font-size="24" transform="translate(944.12 96)">B[0]</text></g><g><text font-family="DengXian,DengXian_MSFontService,sans-serif" font-weight="400" font-size="24" transform="translate(845.836 96)">B[1]</text></g><g><text font-family="DengXian,DengXian_MSFontService,sans-serif" font-weight="400" font-size="24" transform="translate(747.553 96)">B[2]</text></g><g><text font-family="DengXian,DengXian_MSFontService,sans-serif" font-weight="400" font-size="24" transform="translate(649.27 96)">…</text></g><g><text font-family="DengXian,DengXian_MSFontService,sans-serif" font-weight="400" font-size="24" transform="translate(550.987 96)">…</text></g><g><text font-family="DengXian,DengXian_MSFontService,sans-serif" font-weight="400" font-size="24" transform="translate(452.703 96)">B[13]</text></g><g><text font-family="DengXian,DengXian_MSFontService,sans-serif" font-weight="400" font-size="24" transform="translate(354.42 96)">B[14]</text></g><g><text font-family="DengXian,DengXian_MSFontService,sans-serif" font-weight="400" font-size="24" transform="translate(256.137 96)">B[15]</text></g><g><text font-family="DengXian,DengXian_MSFontService,sans-serif" font-weight="400" font-size="24" transform="translate(157.854 96)">B[16]</text></g><path d="M1070.5 122.5C1070.5 132.717 1069.12 141 1067.42 141L978.083 141C976.38 141 975 149.283 975 159.5 975 149.283 973.62 141 971.917 141L882.583 141C880.88 141 879.5 132.717 879.5 122.5" stroke="#556CD1" stroke-width="1.33333" stroke-linejoin="round" stroke-miterlimit="10" fill="none" fill-rule="evenodd"/><path d="M871.5 122.5C871.5 132.994 870.082 141.5 868.333 141.5L779.167 141.5C777.418 141.5 776 150.007 776 160.5 776 150.007 774.582 141.5 772.833 141.5L683.667 141.5C681.918 141.5 680.5 132.994 680.5 122.5" stroke="#556CD1" stroke-width="1.33333" stroke-linejoin="round" stroke-miterlimit="10" fill="none" fill-rule="evenodd"/><path d="M473.5 122.5C473.5 132.994 472.082 141.5 470.333 141.5L381.167 141.5C379.418 141.5 378 150.007 378 160.5 378 150.007 376.582 141.5 374.833 141.5L285.667 141.5C283.918 141.5 282.5 132.994 282.5 122.5" stroke="#556CD1" stroke-width="1.33333" stroke-linejoin="round" stroke-miterlimit="10" fill="none" fill-rule="evenodd"/><path d="M274.5 123.5C274.5 133.717 273.12 142 271.417 142L182.083 142C180.38 142 179 150.283 179 160.5 179 150.283 177.62 142 175.917 142L86.5833 142C84.8805 142 83.5001 133.717 83.5001 123.5" stroke="#556CD1" stroke-width="1.33333" stroke-linejoin="round" stroke-miterlimit="10" fill="none" fill-rule="evenodd"/><text font-family="DengXian,DengXian_MSFontService,sans-serif" font-weight="400" font-size="24" transform="translate(960.994 187)">P0</text><text font-family="DengXian,DengXian_MSFontService,sans-serif" font-weight="400" font-size="24" transform="translate(762.137 187)">P1</text><text font-family="DengXian,DengXian_MSFontService,sans-serif" font-weight="400" font-size="24" transform="translate(364.423 187)">P7</text><text font-family="DengXian,DengXian_MSFontService,sans-serif" font-weight="400" font-size="24" transform="translate(165.566 183)">P8</text><text font-family="DengXian,DengXian_MSFontService,sans-serif" font-weight="400" font-size="24" transform="translate(85.3627 96)">0</text><text font-family="DengXian,DengXian_MSFontService,sans-serif" font-weight="400" font-size="24" transform="translate(549.631 144)">…</text></g></svg>